<svg width="16" height="19" viewBox="0 0 16 19" fill="none" xmlns="http://www.w3.org/2000/svg">
<path d="M14.625 1.375H1.12148C0.502734 1.375 0 1.88477 0 2.51055V15.9895C0 16.6152 0.502734 17.125 1.12148 17.125H14.625C15.2437 17.125 15.75 16.6152 15.75 15.9895V2.51055C15.75 1.88477 15.2437 1.375 14.625 1.375ZM4.76016 14.875H2.42578V7.35859H4.76367V14.875H4.76016ZM3.59297 6.33203C2.84414 6.33203 2.23945 5.72383 2.23945 4.97852C2.23945 4.2332 2.84414 3.625 3.59297 3.625C4.33828 3.625 4.94648 4.2332 4.94648 4.97852C4.94648 5.72734 4.3418 6.33203 3.59297 6.33203ZM13.5105 14.875H11.1762V11.2188C11.1762 10.3469 11.1586 9.22539 9.96328 9.22539C8.74687 9.22539 8.56055 10.1746 8.56055 11.1555V14.875H6.22617V7.35859H8.46562V8.38516H8.49727C8.81016 7.79453 9.57305 7.17227 10.7086 7.17227C13.0711 7.17227 13.5105 8.72969 13.5105 10.7547V14.875Z" fill="white"/>
</svg>
