<svg width="19" height="19" viewBox="0 0 19 19" fill="none" xmlns="http://www.w3.org/2000/svg">
<path d="M16.3397 5.58381C16.3511 5.7437 16.3511 5.90363 16.3511 6.06352C16.3511 10.9404 12.6392 16.5597 5.85491 16.5597C3.7648 16.5597 1.8232 15.9543 0.189941 14.9036C0.486906 14.9379 0.77241 14.9493 1.0808 14.9493C2.80539 14.9493 4.39298 14.3668 5.66075 13.3732C4.03892 13.3389 2.67978 12.2767 2.2115 10.8148C2.43994 10.849 2.66835 10.8719 2.90822 10.8719C3.23943 10.8719 3.57067 10.8262 3.87903 10.7463C2.18868 10.4036 0.920875 8.91884 0.920875 7.1257V7.08003C1.41197 7.35414 1.98309 7.52546 2.58837 7.54827C1.59471 6.88582 0.943727 5.75513 0.943727 4.47593C0.943727 3.79067 1.12643 3.1625 1.44625 2.61427C3.26225 4.85284 5.99195 6.31475 9.05283 6.47467C8.99574 6.20056 8.96146 5.91505 8.96146 5.62952C8.96146 3.5965 10.6061 1.94043 12.6505 1.94043C13.7127 1.94043 14.6721 2.38586 15.346 3.1054C16.1797 2.94551 16.9792 2.63712 17.6873 2.21454C17.4132 3.07116 16.8307 3.7907 16.0655 4.24752C16.8079 4.16761 17.5275 3.96198 18.1899 3.67648C17.6874 4.40741 17.0592 5.0584 16.3397 5.58381Z" fill="white"/>
</svg>
