<svg width="19" height="19" viewBox="0 0 19 19" fill="none" xmlns="http://www.w3.org/2000/svg">
<path d="M6.58326 14.2211C6.58326 14.2914 6.50239 14.3477 6.40042 14.3477C6.28439 14.3582 6.20352 14.302 6.20352 14.2211C6.20352 14.1508 6.28439 14.0945 6.38635 14.0945C6.49184 14.084 6.58326 14.1402 6.58326 14.2211ZM5.48974 14.0629C5.46513 14.1332 5.53545 14.2141 5.64094 14.2352C5.73236 14.2703 5.83784 14.2352 5.85894 14.1648C5.88003 14.0945 5.81323 14.0137 5.70774 13.982C5.61632 13.9574 5.51436 13.9926 5.48974 14.0629ZM7.04387 14.0031C6.9419 14.0277 6.87158 14.0945 6.88213 14.1754C6.89268 14.2457 6.9841 14.2914 7.08958 14.2668C7.19155 14.2422 7.26187 14.1754 7.25132 14.1051C7.24077 14.0383 7.14584 13.9926 7.04387 14.0031ZM9.35748 0.53125C4.48061 0.53125 0.75 4.2332 0.75 9.10938C0.75 13.0082 3.20426 16.3445 6.70984 17.5188C7.1599 17.5996 7.31813 17.3219 7.31813 17.0934C7.31813 16.8754 7.30758 15.673 7.30758 14.9348C7.30758 14.9348 4.84629 15.4621 4.32942 13.8871C4.32942 13.8871 3.92858 12.8641 3.35194 12.6004C3.35194 12.6004 2.54674 12.0484 3.40819 12.059C3.40819 12.059 4.28371 12.1293 4.76542 12.966C5.53545 14.323 6.82587 13.9328 7.32868 13.7008C7.40955 13.1383 7.6381 12.748 7.89126 12.516C5.92574 12.298 3.94265 12.0133 3.94265 8.63125C3.94265 7.66445 4.20987 7.1793 4.77245 6.56055C4.68103 6.33203 4.38216 5.38984 4.86387 4.17344C5.59874 3.94492 7.29 5.12266 7.29 5.12266C7.99323 4.92578 8.74919 4.82383 9.49813 4.82383C10.2471 4.82383 11.003 4.92578 11.7063 5.12266C11.7063 5.12266 13.3975 3.94141 14.1324 4.17344C14.6141 5.39336 14.3152 6.33203 14.2238 6.56055C14.7864 7.18281 15.131 7.66797 15.131 8.63125C15.131 12.0238 13.06 12.2945 11.0945 12.516C11.4179 12.7937 11.6922 13.3211 11.6922 14.1473C11.6922 15.332 11.6816 16.798 11.6816 17.0863C11.6816 17.3148 11.8434 17.5926 12.2899 17.5117C15.8061 16.3445 18.19 13.0082 18.19 9.10938C18.19 4.2332 14.2344 0.53125 9.35748 0.53125ZM4.16768 12.6566C4.12197 12.6918 4.13252 12.7727 4.19229 12.8395C4.24855 12.8957 4.32942 12.9203 4.37513 12.8746C4.42084 12.8395 4.41029 12.7586 4.35052 12.6918C4.29426 12.6355 4.21339 12.6109 4.16768 12.6566ZM3.78794 12.3719C3.76332 12.4176 3.79848 12.4738 3.86881 12.509C3.92506 12.5441 3.99539 12.5336 4.02 12.4844C4.04461 12.4387 4.00945 12.3824 3.93913 12.3473C3.86881 12.3262 3.81255 12.3367 3.78794 12.3719ZM4.92716 13.6234C4.8709 13.6691 4.892 13.7746 4.97287 13.8414C5.05374 13.9223 5.15571 13.9328 5.20142 13.8766C5.24713 13.8309 5.22603 13.7254 5.15571 13.6586C5.07835 13.5777 4.97287 13.5672 4.92716 13.6234ZM4.52632 13.1066C4.47006 13.1418 4.47006 13.2332 4.52632 13.3141C4.58258 13.3949 4.67752 13.4301 4.72323 13.3949C4.77948 13.3492 4.77948 13.2578 4.72323 13.177C4.674 13.0961 4.58258 13.0609 4.52632 13.1066Z" fill="white"/>
</svg>
