<svg width="20" height="20" viewBox="0 0 20 20" fill="none" xmlns="http://www.w3.org/2000/svg">
<path fill-rule="evenodd" clip-rule="evenodd" d="M10.0001 1.66669C14.6026 1.66669 18.3334 5.39752 18.3334 10C18.3334 13.5834 16.0717 16.6384 12.8984 17.815C12.8448 17.8445 12.788 17.868 12.7292 17.885L12.6501 17.9034C11.7958 18.189 10.9008 18.3342 10.0001 18.3334C5.39758 18.3334 1.66675 14.6025 1.66675 10C1.66675 5.39752 5.39758 1.66669 10.0001 1.66669ZM12.4251 3.78835L12.2784 4.52252C12.1839 4.99504 11.9548 5.43016 11.6188 5.77553C11.2827 6.12089 10.854 6.36177 10.3842 6.46919L10.0501 6.54585C9.8428 6.59311 9.66143 6.7178 9.54307 6.89441C9.42472 7.07101 9.37833 7.28617 9.41341 7.49585L9.55925 8.36919C9.60571 8.64912 9.57993 8.93628 9.48435 9.20347C9.38877 9.47065 9.22655 9.709 9.01307 9.89594C8.79959 10.0829 8.54191 10.2122 8.26445 10.2717C7.98699 10.3312 7.69894 10.3189 7.42758 10.2359L6.35258 9.90752C5.84054 9.751 5.39228 9.43421 5.07379 9.00381C4.7553 8.5734 4.58341 8.05212 4.58341 7.51669V6.11252C3.79438 7.21106 3.35814 8.52362 3.33263 9.87592C3.30711 11.2282 3.69353 12.5563 4.44057 13.6838C5.18761 14.8113 6.25993 15.685 7.51517 16.1887C8.77041 16.6925 10.1492 16.8025 11.4684 16.5042L10.9842 14.8109C10.9452 14.6747 10.872 14.5508 10.7717 14.4509L9.74008 13.4184C9.61574 13.2941 9.51901 13.145 9.4562 12.9808C9.3934 12.8166 9.36594 12.641 9.37561 12.4654C9.38529 12.2899 9.43188 12.1184 9.51234 11.9621C9.59281 11.8058 9.70533 11.6682 9.84258 11.5584L11.1467 10.5159C11.3954 10.317 11.6958 10.1934 12.0124 10.1599C12.329 10.1264 12.6486 10.1843 12.9334 10.3267L14.1584 10.9392C14.5265 11.1233 14.8434 11.3953 15.0811 11.7313C15.3188 12.0672 15.4699 12.4567 15.5209 12.865L15.6126 13.5992C16.1451 12.7684 16.4866 11.8298 16.6125 10.8511C16.7385 9.87238 16.6456 8.87791 16.3407 7.93941C16.0358 7.00091 15.5264 6.14177 14.8493 5.42394C14.1722 4.70611 13.3442 4.14749 12.4251 3.78835ZM12.1876 11.8175L11.2476 12.5692L11.9509 13.2717C12.2077 13.5288 12.4053 13.8388 12.5301 14.18L12.5867 14.3534L13.0392 15.935C13.3315 15.785 13.6104 15.615 13.8759 15.425L14.1367 15.2284L13.8676 13.0717C13.8527 12.9529 13.8124 12.8387 13.7494 12.7369C13.6864 12.6351 13.6022 12.548 13.5026 12.4817L13.4126 12.43L12.1876 11.8175ZM10.0001 3.33335C8.66024 3.3311 7.35112 3.73465 6.24508 4.49085C6.24841 4.52085 6.25008 4.55169 6.25008 4.58335V7.51669C6.24992 7.69519 6.30709 7.86902 6.41315 8.01259C6.51922 8.15617 6.66858 8.26189 6.83925 8.31419L7.91508 8.64252L7.76925 7.76919C7.66444 7.14052 7.80369 6.49555 8.15855 5.96613C8.51341 5.4367 9.05707 5.0628 9.67841 4.92085L10.0126 4.84502C10.1694 4.80918 10.3124 4.72874 10.4245 4.61341C10.5366 4.49807 10.6129 4.35276 10.6442 4.19502L10.8076 3.38169C10.5396 3.34925 10.27 3.3331 10.0001 3.33335Z" fill="black"/>
</svg>
